<svg width="272" height="345" viewBox="0 0 272 345" fill="none" xmlns="http://www.w3.org/2000/svg">
<path d="M136.855 62.9311L143.939 60.5709L155.561 95.0738L148.476 97.434L136.855 62.9311Z" fill="black"/>
<path d="M157.689 101.393L150.605 103.753L162.226 138.256L169.311 135.896L157.689 101.393Z" fill="black"/>
<path d="M164.355 144.576L171.439 142.216L183.061 176.718L175.976 179.079L164.355 144.576Z" fill="black"/>
<path d="M185.189 183.038L178.105 185.398L180.618 192.859H174.362V200.289H191L185.189 183.038Z" fill="black"/>
<path d="M170.972 192.859V200.289H139.362V230.569H155.426V238H131.891V200.289H101.028V192.859H131.891V164.436H139.362V192.859H170.972Z" fill="black"/>
<path d="M97.6383 192.859H91.3825L93.8954 185.398L86.8107 183.038L81 200.289H97.6383V192.859Z" fill="black"/>
<path d="M96.0239 179.079L88.9393 176.718L100.561 142.215L107.645 144.576L96.0239 179.079Z" fill="black"/>
<path d="M102.689 135.896L109.774 138.256L121.395 103.753L114.311 101.393L102.689 135.896Z" fill="black"/>
<path d="M123.524 97.434L116.439 95.0738L128.061 60.5709L135.145 62.9311L123.524 97.434Z" fill="black"/>
<path fill-rule="evenodd" clip-rule="evenodd" d="M0 0V272H272V0H0ZM264 8H8V264H264V8Z" fill="black"/>
<path fill-rule="evenodd" clip-rule="evenodd" d="M97.6627 302.648V303.92H106.735V308H108.391V303.92H110.959V302.456H108.391V290.888H106.399L97.6627 302.648ZM99.6067 302.456L106.807 292.736V302.456H99.6067Z" fill="black"/>
<path fill-rule="evenodd" clip-rule="evenodd" d="M131.437 292.832C130.589 294.352 130.165 296.488 130.165 299.24C130.165 302.04 130.581 304.208 131.413 305.744C132.261 307.28 133.789 308.048 135.997 308.048C138.189 308.048 139.709 307.28 140.557 305.744C141.405 304.208 141.829 302.04 141.829 299.24C141.829 296.488 141.405 294.352 140.557 292.832C139.709 291.312 138.189 290.552 135.997 290.552C133.805 290.552 132.285 291.312 131.437 292.832ZM139.861 295.472C140.069 296.496 140.173 297.752 140.173 299.24C140.173 300.776 140.069 302.064 139.861 303.104C139.653 304.128 139.245 304.952 138.637 305.576C138.029 306.2 137.149 306.512 135.997 306.512C134.845 306.512 133.965 306.2 133.357 305.576C132.749 304.952 132.341 304.128 132.133 303.104C131.925 302.064 131.821 300.776 131.821 299.24C131.821 297.752 131.925 296.496 132.133 295.472C132.341 294.448 132.749 293.624 133.357 293C133.965 292.376 134.845 292.064 135.997 292.064C137.149 292.064 138.029 292.376 138.637 293C139.245 293.624 139.653 294.448 139.861 295.472Z" fill="black"/>
<path fill-rule="evenodd" clip-rule="evenodd" d="M161.251 302.648V303.92H170.323V308H171.979V303.92H174.547V302.456H171.979V290.888H169.987L161.251 302.648ZM163.195 302.456L170.395 292.736V302.456H163.195Z" fill="black"/>
<path d="M13.5092 344H15.1892V327.224H13.5092V341.312L4.22125 327.224H2.54125V344H4.22125V329.888L13.5092 344Z" fill="black"/>
<path fill-rule="evenodd" clip-rule="evenodd" d="M39.3464 343.088C40.6104 343.808 42.0184 344.168 43.5704 344.168C45.1384 344.168 46.5544 343.808 47.8184 343.088C49.0824 342.352 50.0744 341.336 50.7944 340.04C51.5144 338.728 51.8744 337.248 51.8744 335.6C51.8744 333.952 51.5144 332.48 50.7944 331.184C50.0744 329.872 49.0824 328.856 47.8184 328.136C46.5544 327.4 45.1384 327.032 43.5704 327.032C42.0184 327.032 40.6104 327.4 39.3464 328.136C38.0824 328.856 37.0824 329.872 36.3464 331.184C35.6264 332.48 35.2664 333.952 35.2664 335.6C35.2664 337.248 35.6264 338.728 36.3464 340.04C37.0824 341.336 38.0824 342.352 39.3464 343.088ZM46.9304 341.84C45.9384 342.416 44.8184 342.704 43.5704 342.704C42.3224 342.704 41.2024 342.416 40.2104 341.84C39.2184 341.264 38.4344 340.44 37.8584 339.368C37.2824 338.28 36.9944 337.024 36.9944 335.6C36.9944 334.176 37.2824 332.928 37.8584 331.856C38.4344 330.784 39.2184 329.96 40.2104 329.384C41.2024 328.808 42.3224 328.52 43.5704 328.52C44.8184 328.52 45.9384 328.808 46.9304 329.384C47.9224 329.96 48.7064 330.784 49.2824 331.856C49.8584 332.928 50.1464 334.176 50.1464 335.6C50.1464 337.024 49.8584 338.28 49.2824 339.368C48.7064 340.44 47.9224 341.264 46.9304 341.84Z" fill="black"/>
<path d="M81.8044 328.616V327.224H70.7884V328.616H75.4684V344H77.1484V328.616H81.8044Z" fill="black"/>
<path d="M134.195 328.616V327.224H125.123V344H126.803V336.272H133.043V334.88H126.803V328.616H134.195Z" fill="black"/>
<path fill-rule="evenodd" clip-rule="evenodd" d="M157.311 343.088C158.575 343.808 159.983 344.168 161.535 344.168C163.103 344.168 164.519 343.808 165.783 343.088C167.047 342.352 168.039 341.336 168.759 340.04C169.479 338.728 169.839 337.248 169.839 335.6C169.839 333.952 169.479 332.48 168.759 331.184C168.039 329.872 167.047 328.856 165.783 328.136C164.519 327.4 163.103 327.032 161.535 327.032C159.983 327.032 158.575 327.4 157.311 328.136C156.047 328.856 155.047 329.872 154.311 331.184C153.591 332.48 153.231 333.952 153.231 335.6C153.231 337.248 153.591 338.728 154.311 340.04C155.047 341.336 156.047 342.352 157.311 343.088ZM164.895 341.84C163.903 342.416 162.783 342.704 161.535 342.704C160.287 342.704 159.167 342.416 158.175 341.84C157.183 341.264 156.399 340.44 155.823 339.368C155.247 338.28 154.959 337.024 154.959 335.6C154.959 334.176 155.247 332.928 155.823 331.856C156.399 330.784 157.183 329.96 158.175 329.384C159.167 328.808 160.287 328.52 161.535 328.52C162.783 328.52 163.903 328.808 164.895 329.384C165.887 329.96 166.671 330.784 167.247 331.856C167.823 332.928 168.111 334.176 168.111 335.6C168.111 337.024 167.823 338.28 167.247 339.368C166.671 340.44 165.887 341.264 164.895 341.84Z" fill="black"/>
<path d="M191.561 337.784V327.224H189.881V337.76C189.881 339.888 190.441 341.488 191.561 342.56C192.697 343.632 194.169 344.168 195.977 344.168C197.785 344.168 199.249 343.632 200.369 342.56C201.505 341.488 202.073 339.888 202.073 337.76V327.224H200.393V337.784C200.393 339.464 200.001 340.704 199.217 341.504C198.449 342.288 197.377 342.68 196.001 342.68C194.625 342.68 193.537 342.28 192.737 341.48C191.953 340.68 191.561 339.448 191.561 337.784Z" fill="black"/>
<path d="M233.828 344H235.508V327.224H233.828V341.312L224.54 327.224H222.86V344H224.54V329.888L233.828 344Z" fill="black"/>
<path fill-rule="evenodd" clip-rule="evenodd" d="M266.097 328.232C264.769 327.56 263.177 327.224 261.321 327.224H256.353V344H261.321C263.177 344 264.769 343.672 266.097 343.016C267.425 342.344 268.441 341.384 269.145 340.136C269.849 338.872 270.201 337.376 270.201 335.648C270.201 333.904 269.849 332.4 269.145 331.136C268.441 329.872 267.425 328.904 266.097 328.232ZM266.649 340.784C265.433 342 263.657 342.608 261.321 342.608H258.033V328.616H261.321C263.657 328.616 265.433 329.24 266.649 330.488C267.881 331.72 268.497 333.44 268.497 335.648C268.497 337.84 267.881 339.552 266.649 340.784Z" fill="black"/>
<path d="M136 37L130.189 54.2515L136 56.19L141.811 54.2515L136 37Z" fill="black"/>
</svg>
