<svg width="400" height="400" viewBox="0 0 400 400" fill="none" xmlns="http://www.w3.org/2000/svg">
<path fill-rule="evenodd" clip-rule="evenodd" d="M254.985 229L199.993 64L145 229H195.493V267H219.493V259H203.493V229H254.985ZM203.493 193V221H243.886L199.993 89.3013L156.099 221H195.493V193H203.493Z" fill="black"/>
<path fill-rule="evenodd" clip-rule="evenodd" d="M64 301V29H336V301H64ZM72 37H328V293H72V37Z" fill="black"/>
<path d="M124.6 333L128.56 319.02H127.06L123.84 331.28L120.36 319.02H118.8L115.22 331.28L112.02 319.02H110.52L114.4 333.02L115.92 333L119.52 321.08L123.04 333H124.6Z" fill="black"/>
<path fill-rule="evenodd" clip-rule="evenodd" d="M156.982 333.14C155.688 333.14 154.515 332.84 153.462 332.24C152.408 331.627 151.575 330.78 150.962 329.7C150.362 328.607 150.062 327.373 150.062 326C150.062 324.627 150.362 323.4 150.962 322.32C151.575 321.227 152.408 320.38 153.462 319.78C154.515 319.167 155.688 318.86 156.982 318.86C158.288 318.86 159.468 319.167 160.522 319.78C161.575 320.38 162.402 321.227 163.002 322.32C163.602 323.4 163.902 324.627 163.902 326C163.902 327.373 163.602 328.607 163.002 329.7C162.402 330.78 161.575 331.627 160.522 332.24C159.468 332.84 158.288 333.14 156.982 333.14ZM156.982 331.92C158.022 331.92 158.955 331.68 159.782 331.2C160.608 330.72 161.262 330.033 161.742 329.14C162.222 328.233 162.462 327.187 162.462 326C162.462 324.813 162.222 323.773 161.742 322.88C161.262 321.987 160.608 321.3 159.782 320.82C158.955 320.34 158.022 320.1 156.982 320.1C155.942 320.1 155.008 320.34 154.182 320.82C153.355 321.3 152.702 321.987 152.222 322.88C151.742 323.773 151.502 324.813 151.502 326C151.502 327.187 151.742 328.233 152.222 329.14C152.702 330.033 153.355 330.72 154.182 331.2C155.008 331.68 155.942 331.92 156.982 331.92Z" fill="black"/>
<path fill-rule="evenodd" clip-rule="evenodd" d="M189.223 332.24C190.277 332.84 191.45 333.14 192.743 333.14C194.05 333.14 195.23 332.84 196.283 332.24C197.337 331.627 198.163 330.78 198.763 329.7C199.363 328.607 199.663 327.373 199.663 326C199.663 324.627 199.363 323.4 198.763 322.32C198.163 321.227 197.337 320.38 196.283 319.78C195.23 319.167 194.05 318.86 192.743 318.86C191.45 318.86 190.277 319.167 189.223 319.78C188.17 320.38 187.337 321.227 186.723 322.32C186.123 323.4 185.823 324.627 185.823 326C185.823 327.373 186.123 328.607 186.723 329.7C187.337 330.78 188.17 331.627 189.223 332.24ZM195.543 331.2C194.717 331.68 193.783 331.92 192.743 331.92C191.703 331.92 190.77 331.68 189.943 331.2C189.117 330.72 188.463 330.033 187.983 329.14C187.503 328.233 187.263 327.187 187.263 326C187.263 324.813 187.503 323.773 187.983 322.88C188.463 321.987 189.117 321.3 189.943 320.82C190.77 320.34 191.703 320.1 192.743 320.1C193.783 320.1 194.717 320.34 195.543 320.82C196.37 321.3 197.023 321.987 197.503 322.88C197.983 323.773 198.223 324.813 198.223 326C198.223 327.187 197.983 328.233 197.503 329.14C197.023 330.033 196.37 330.72 195.543 331.2Z" fill="black"/>
<path d="M223.625 331.86H228.645V333H222.225V319.02H223.625V331.86Z" fill="black"/>
<path d="M252.043 333V319.02H250.643V333H252.043Z" fill="black"/>
<path d="M288.873 319.2V333H287.473V321.98L282.553 333H281.533L276.613 322.02V333H275.213V319.2H276.693L282.033 331.16L287.373 319.2H288.873Z" fill="black"/>
<path d="M169 361.86H174.02V363H167.6V349.02H169V361.86Z" fill="black"/>
<path d="M197.418 355.38V350.16H203.318V349H196.018V363H203.318V361.84H197.418V356.54H202.718V355.38H197.418Z" fill="black"/>
<path d="M227.477 350.16V355.38H232.777V356.54H227.477V361.84H233.377V363H226.077V349H233.377V350.16H227.477Z" fill="black"/>
</svg>
